<mxfile host="app.diagrams.net" agent="Mozilla/5.0 (Windows NT 10.0; Win64; x64) AppleWebKit/537.36 (KHTML, like Gecko) Chrome/127.0.0.0 Safari/537.36 Edg/127.0.0.0" version="24.7.7">
  <diagram name="Page-1" id="P7n6opgQHWQnlDp3biXC">
    <mxGraphModel dx="1222" dy="791" grid="1" gridSize="10" guides="1" tooltips="1" connect="1" arrows="1" fold="1" page="1" pageScale="1" pageWidth="1400" pageHeight="850" math="0" shadow="0">
      <root>
        <mxCell id="0" />
        <mxCell id="1" parent="0" />
        <mxCell id="me-fOevR-S1ejX5NIjo--29" value="" style="edgeStyle=orthogonalEdgeStyle;rounded=0;orthogonalLoop=1;jettySize=auto;html=1;" edge="1" parent="1" source="me-fOevR-S1ejX5NIjo--19" target="me-fOevR-S1ejX5NIjo--28">
          <mxGeometry relative="1" as="geometry" />
        </mxCell>
        <mxCell id="me-fOevR-S1ejX5NIjo--19" value="" style="shape=ext;double=1;rounded=1;whiteSpace=wrap;html=1;" vertex="1" parent="1">
          <mxGeometry x="645" y="197" width="150" height="300" as="geometry" />
        </mxCell>
        <mxCell id="me-fOevR-S1ejX5NIjo--9" value="" style="edgeStyle=orthogonalEdgeStyle;rounded=0;orthogonalLoop=1;jettySize=auto;html=1;" edge="1" parent="1" source="me-fOevR-S1ejX5NIjo--1" target="me-fOevR-S1ejX5NIjo--8">
          <mxGeometry relative="1" as="geometry" />
        </mxCell>
        <mxCell id="me-fOevR-S1ejX5NIjo--1" value="" style="outlineConnect=0;dashed=0;verticalLabelPosition=bottom;verticalAlign=top;align=center;html=1;shape=mxgraph.aws3.s3;fillColor=#E05243;gradientColor=none;" vertex="1" parent="1">
          <mxGeometry x="230" y="282.5" width="76.5" height="93" as="geometry" />
        </mxCell>
        <mxCell id="me-fOevR-S1ejX5NIjo--2" value="&lt;div&gt;Partner P2P -&amp;gt; Amazon Kinesis/AWS Lambda -&amp;gt; Amazon S3 -&amp;gt; AWS Glue -&amp;gt; AWS Lambda -&amp;gt; Amazon SageMaker -&amp;gt; Amazon DynamoDB -&amp;gt; Amazon S3/Glacier -&amp;gt; Amazon API Gateway -&amp;gt; Monitoring (CloudWatch/CloudTrail)&lt;/div&gt;&lt;div&gt;&lt;br&gt;&lt;/div&gt;" style="text;html=1;align=center;verticalAlign=middle;whiteSpace=wrap;rounded=0;" vertex="1" parent="1">
          <mxGeometry x="100" y="700" width="380" height="30" as="geometry" />
        </mxCell>
        <mxCell id="me-fOevR-S1ejX5NIjo--3" value="" style="sketch=0;outlineConnect=0;fontColor=#232F3E;gradientColor=none;fillColor=#232F3D;strokeColor=none;dashed=0;verticalLabelPosition=bottom;verticalAlign=top;align=center;html=1;fontSize=12;fontStyle=0;aspect=fixed;pointerEvents=1;shape=mxgraph.aws4.documents;" vertex="1" parent="1">
          <mxGeometry x="50" y="110" width="64" height="78" as="geometry" />
        </mxCell>
        <mxCell id="me-fOevR-S1ejX5NIjo--4" value="" style="sketch=0;outlineConnect=0;fontColor=#232F3E;gradientColor=none;fillColor=#232F3D;strokeColor=none;dashed=0;verticalLabelPosition=bottom;verticalAlign=top;align=center;html=1;fontSize=12;fontStyle=0;aspect=fixed;pointerEvents=1;shape=mxgraph.aws4.documents;" vertex="1" parent="1">
          <mxGeometry x="50" y="290" width="64" height="78" as="geometry" />
        </mxCell>
        <mxCell id="me-fOevR-S1ejX5NIjo--5" value="" style="sketch=0;outlineConnect=0;fontColor=#232F3E;gradientColor=none;fillColor=#232F3D;strokeColor=none;dashed=0;verticalLabelPosition=bottom;verticalAlign=top;align=center;html=1;fontSize=12;fontStyle=0;aspect=fixed;pointerEvents=1;shape=mxgraph.aws4.documents;" vertex="1" parent="1">
          <mxGeometry x="50" y="470" width="64" height="78" as="geometry" />
        </mxCell>
        <mxCell id="me-fOevR-S1ejX5NIjo--6" value="File / Object" style="fillColor=none;strokeColor=#5A6C86;dashed=1;verticalAlign=top;fontStyle=0;fontColor=#5A6C86;whiteSpace=wrap;html=1;" vertex="1" parent="1">
          <mxGeometry x="20" y="80" width="130" height="500" as="geometry" />
        </mxCell>
        <mxCell id="me-fOevR-S1ejX5NIjo--7" style="edgeStyle=orthogonalEdgeStyle;rounded=0;orthogonalLoop=1;jettySize=auto;html=1;entryX=0;entryY=0.5;entryDx=0;entryDy=0;entryPerimeter=0;" edge="1" parent="1" source="me-fOevR-S1ejX5NIjo--6" target="me-fOevR-S1ejX5NIjo--1">
          <mxGeometry relative="1" as="geometry" />
        </mxCell>
        <mxCell id="me-fOevR-S1ejX5NIjo--11" value="" style="edgeStyle=orthogonalEdgeStyle;rounded=0;orthogonalLoop=1;jettySize=auto;html=1;" edge="1" parent="1" source="me-fOevR-S1ejX5NIjo--8" target="me-fOevR-S1ejX5NIjo--10">
          <mxGeometry relative="1" as="geometry" />
        </mxCell>
        <mxCell id="me-fOevR-S1ejX5NIjo--8" value="" style="outlineConnect=0;dashed=0;verticalLabelPosition=bottom;verticalAlign=top;align=center;html=1;shape=mxgraph.aws3.lambda;fillColor=#F58534;gradientColor=none;" vertex="1" parent="1">
          <mxGeometry x="389.5" y="282.5" width="76.5" height="93" as="geometry" />
        </mxCell>
        <mxCell id="me-fOevR-S1ejX5NIjo--10" value="" style="sketch=0;points=[[0,0,0],[0.25,0,0],[0.5,0,0],[0.75,0,0],[1,0,0],[0,1,0],[0.25,1,0],[0.5,1,0],[0.75,1,0],[1,1,0],[0,0.25,0],[0,0.5,0],[0,0.75,0],[1,0.25,0],[1,0.5,0],[1,0.75,0]];outlineConnect=0;fontColor=#232F3E;fillColor=#ED7100;strokeColor=#ffffff;dashed=0;verticalLabelPosition=bottom;verticalAlign=top;align=center;html=1;fontSize=12;fontStyle=0;aspect=fixed;shape=mxgraph.aws4.resourceIcon;resIcon=mxgraph.aws4.eks;" vertex="1" parent="1">
          <mxGeometry x="550" y="290" width="78" height="78" as="geometry" />
        </mxCell>
        <mxCell id="me-fOevR-S1ejX5NIjo--12" value="" style="sketch=0;pointerEvents=1;shadow=0;dashed=0;html=1;strokeColor=none;labelPosition=center;verticalLabelPosition=bottom;verticalAlign=top;align=center;fillColor=#505050;shape=mxgraph.mscae.oms.jobs" vertex="1" parent="1">
          <mxGeometry x="660" y="220" width="50" height="50" as="geometry" />
        </mxCell>
        <mxCell id="me-fOevR-S1ejX5NIjo--13" value="" style="sketch=0;pointerEvents=1;shadow=0;dashed=0;html=1;strokeColor=none;labelPosition=center;verticalLabelPosition=bottom;verticalAlign=top;align=center;fillColor=#505050;shape=mxgraph.mscae.oms.jobs" vertex="1" parent="1">
          <mxGeometry x="660" y="290" width="50" height="50" as="geometry" />
        </mxCell>
        <mxCell id="me-fOevR-S1ejX5NIjo--14" value="" style="sketch=0;pointerEvents=1;shadow=0;dashed=0;html=1;strokeColor=none;labelPosition=center;verticalLabelPosition=bottom;verticalAlign=top;align=center;fillColor=#505050;shape=mxgraph.mscae.oms.jobs" vertex="1" parent="1">
          <mxGeometry x="660" y="360" width="50" height="50" as="geometry" />
        </mxCell>
        <mxCell id="me-fOevR-S1ejX5NIjo--15" value="" style="sketch=0;pointerEvents=1;shadow=0;dashed=0;html=1;strokeColor=none;labelPosition=center;verticalLabelPosition=bottom;verticalAlign=top;align=center;fillColor=#505050;shape=mxgraph.mscae.oms.jobs" vertex="1" parent="1">
          <mxGeometry x="660" y="425" width="50" height="50" as="geometry" />
        </mxCell>
        <mxCell id="me-fOevR-S1ejX5NIjo--16" value="Role Enginering" style="text;html=1;align=center;verticalAlign=middle;whiteSpace=wrap;rounded=0;" vertex="1" parent="1">
          <mxGeometry x="720" y="300" width="60" height="30" as="geometry" />
        </mxCell>
        <mxCell id="me-fOevR-S1ejX5NIjo--17" value="JOB" style="text;html=1;align=center;verticalAlign=middle;whiteSpace=wrap;rounded=0;" vertex="1" parent="1">
          <mxGeometry x="720" y="368" width="60" height="30" as="geometry" />
        </mxCell>
        <mxCell id="me-fOevR-S1ejX5NIjo--18" value="Border" style="text;html=1;align=center;verticalAlign=middle;whiteSpace=wrap;rounded=0;" vertex="1" parent="1">
          <mxGeometry x="720" y="230" width="60" height="30" as="geometry" />
        </mxCell>
        <mxCell id="me-fOevR-S1ejX5NIjo--23" value="" style="aspect=fixed;sketch=0;html=1;dashed=0;whitespace=wrap;verticalLabelPosition=bottom;verticalAlign=top;fillColor=#2875E2;strokeColor=#ffffff;points=[[0.005,0.63,0],[0.1,0.2,0],[0.9,0.2,0],[0.5,0,0],[0.995,0.63,0],[0.72,0.99,0],[0.5,1,0],[0.28,0.99,0]];shape=mxgraph.kubernetes.icon2;prIcon=api" vertex="1" parent="1">
          <mxGeometry x="530" y="59.2" width="94.58" height="90.8" as="geometry" />
        </mxCell>
        <mxCell id="me-fOevR-S1ejX5NIjo--24" value="" style="aspect=fixed;sketch=0;html=1;dashed=0;whitespace=wrap;verticalLabelPosition=bottom;verticalAlign=top;fillColor=#2875E2;strokeColor=#ffffff;points=[[0.005,0.63,0],[0.1,0.2,0],[0.9,0.2,0],[0.5,0,0],[0.995,0.63,0],[0.72,0.99,0],[0.5,1,0],[0.28,0.99,0]];shape=mxgraph.kubernetes.icon2;prIcon=api" vertex="1" parent="1">
          <mxGeometry x="637.71" y="59.2" width="94.58" height="90.8" as="geometry" />
        </mxCell>
        <mxCell id="me-fOevR-S1ejX5NIjo--25" style="edgeStyle=orthogonalEdgeStyle;rounded=0;orthogonalLoop=1;jettySize=auto;html=1;entryX=0.5;entryY=1;entryDx=0;entryDy=0;entryPerimeter=0;" edge="1" parent="1" source="me-fOevR-S1ejX5NIjo--12" target="me-fOevR-S1ejX5NIjo--23">
          <mxGeometry relative="1" as="geometry" />
        </mxCell>
        <mxCell id="me-fOevR-S1ejX5NIjo--26" style="edgeStyle=orthogonalEdgeStyle;rounded=0;orthogonalLoop=1;jettySize=auto;html=1;entryX=0.5;entryY=1;entryDx=0;entryDy=0;entryPerimeter=0;" edge="1" parent="1" source="me-fOevR-S1ejX5NIjo--12" target="me-fOevR-S1ejX5NIjo--24">
          <mxGeometry relative="1" as="geometry" />
        </mxCell>
        <mxCell id="me-fOevR-S1ejX5NIjo--28" value="" style="sketch=0;points=[[0,0,0],[0.25,0,0],[0.5,0,0],[0.75,0,0],[1,0,0],[0,1,0],[0.25,1,0],[0.5,1,0],[0.75,1,0],[1,1,0],[0,0.25,0],[0,0.5,0],[0,0.75,0],[1,0.25,0],[1,0.5,0],[1,0.75,0]];outlineConnect=0;fontColor=#232F3E;fillColor=#C925D1;strokeColor=#ffffff;dashed=0;verticalLabelPosition=bottom;verticalAlign=top;align=center;html=1;fontSize=12;fontStyle=0;aspect=fixed;shape=mxgraph.aws4.resourceIcon;resIcon=mxgraph.aws4.rds;" vertex="1" parent="1">
          <mxGeometry x="870" y="298.25" width="97.5" height="97.5" as="geometry" />
        </mxCell>
        <mxCell id="me-fOevR-S1ejX5NIjo--30" value="Amazon API Gateway" style="sketch=0;outlineConnect=0;fontColor=#232F3E;gradientColor=none;strokeColor=#ffffff;fillColor=#232F3E;dashed=0;verticalLabelPosition=middle;verticalAlign=bottom;align=center;html=1;whiteSpace=wrap;fontSize=10;fontStyle=1;spacing=3;shape=mxgraph.aws4.productIcon;prIcon=mxgraph.aws4.api_gateway;" vertex="1" parent="1">
          <mxGeometry x="366" y="425" width="100" height="140" as="geometry" />
        </mxCell>
        <mxCell id="me-fOevR-S1ejX5NIjo--31" value="" style="sketch=0;points=[[0,0,0],[0.25,0,0],[0.5,0,0],[0.75,0,0],[1,0,0],[0,1,0],[0.25,1,0],[0.5,1,0],[0.75,1,0],[1,1,0],[0,0.25,0],[0,0.5,0],[0,0.75,0],[1,0.25,0],[1,0.5,0],[1,0.75,0]];outlineConnect=0;fontColor=#232F3E;fillColor=#7AA116;strokeColor=#ffffff;dashed=0;verticalLabelPosition=bottom;verticalAlign=top;align=center;html=1;fontSize=12;fontStyle=0;aspect=fixed;shape=mxgraph.aws4.resourceIcon;resIcon=mxgraph.aws4.glacier;" vertex="1" parent="1">
          <mxGeometry x="1040" y="298.25" width="99" height="99" as="geometry" />
        </mxCell>
        <mxCell id="me-fOevR-S1ejX5NIjo--32" style="edgeStyle=orthogonalEdgeStyle;rounded=0;orthogonalLoop=1;jettySize=auto;html=1;entryX=0;entryY=0.5;entryDx=0;entryDy=0;entryPerimeter=0;" edge="1" parent="1" source="me-fOevR-S1ejX5NIjo--28" target="me-fOevR-S1ejX5NIjo--31">
          <mxGeometry relative="1" as="geometry" />
        </mxCell>
        <mxCell id="me-fOevR-S1ejX5NIjo--33" style="edgeStyle=orthogonalEdgeStyle;rounded=0;orthogonalLoop=1;jettySize=auto;html=1;entryX=1;entryY=0.75;entryDx=0;entryDy=0;entryPerimeter=0;" edge="1" parent="1" source="me-fOevR-S1ejX5NIjo--31" target="me-fOevR-S1ejX5NIjo--28">
          <mxGeometry relative="1" as="geometry" />
        </mxCell>
        <mxCell id="me-fOevR-S1ejX5NIjo--34" value="SLIK" style="text;html=1;align=center;verticalAlign=middle;whiteSpace=wrap;rounded=0;" vertex="1" parent="1">
          <mxGeometry x="547.29" y="29.19999999999999" width="60" height="30" as="geometry" />
        </mxCell>
        <mxCell id="me-fOevR-S1ejX5NIjo--35" value="SIKP" style="text;html=1;align=center;verticalAlign=middle;whiteSpace=wrap;rounded=0;" vertex="1" parent="1">
          <mxGeometry x="660" y="29.19999999999999" width="60" height="30" as="geometry" />
        </mxCell>
        <mxCell id="me-fOevR-S1ejX5NIjo--36" value="" style="outlineConnect=0;dashed=0;verticalLabelPosition=bottom;verticalAlign=top;align=center;html=1;shape=mxgraph.aws3.cloudwatch;fillColor=#759C3E;gradientColor=none;" vertex="1" parent="1">
          <mxGeometry x="580" y="650" width="82.5" height="93" as="geometry" />
        </mxCell>
        <mxCell id="me-fOevR-S1ejX5NIjo--37" value="" style="outlineConnect=0;dashed=0;verticalLabelPosition=bottom;verticalAlign=top;align=center;html=1;shape=mxgraph.aws3.cloudtrail;fillColor=#759C3E;gradientColor=none;" vertex="1" parent="1">
          <mxGeometry x="711.75" y="650" width="76.5" height="93" as="geometry" />
        </mxCell>
        <mxCell id="me-fOevR-S1ejX5NIjo--38" value="P2P #1 Data" style="text;html=1;align=center;verticalAlign=middle;whiteSpace=wrap;rounded=0;" vertex="1" parent="1">
          <mxGeometry x="55" y="200" width="60" height="30" as="geometry" />
        </mxCell>
        <mxCell id="me-fOevR-S1ejX5NIjo--39" value="P2P #2 Data" style="text;html=1;align=center;verticalAlign=middle;whiteSpace=wrap;rounded=0;" vertex="1" parent="1">
          <mxGeometry x="55" y="380" width="60" height="30" as="geometry" />
        </mxCell>
        <mxCell id="me-fOevR-S1ejX5NIjo--40" value="P2P #3 Data" style="text;html=1;align=center;verticalAlign=middle;whiteSpace=wrap;rounded=0;" vertex="1" parent="1">
          <mxGeometry x="55" y="548" width="60" height="30" as="geometry" />
        </mxCell>
      </root>
    </mxGraphModel>
  </diagram>
</mxfile>
